/vscmnt/brussel_pixiu_data/_data_brussel/112/vsc11236/PredSimResults/SUBJ09_Dhondt2024_3seg/weighted/worker_02.mot
version=1
nRows=4
nColumns=124
inDegrees=yes
endheader
                time	         pelvis_tilt	         pelvis_list	     pelvis_rotation	           pelvis_tx	           pelvis_ty	           pelvis_tz	       hip_flexion_r	     hip_adduction_r	      hip_rotation_r	        knee_angle_r	       ankle_angle_r	    subtalar_angle_r	         mtp_angle_r	       hip_flexion_l	     hip_adduction_l	      hip_rotation_l	        knee_angle_l	       ankle_angle_l	    subtalar_angle_l	         mtp_angle_l	    lumbar_extension	      lumbar_bending	     lumbar_rotation	          arm_flex_r	           arm_add_r	           arm_rot_r	        elbow_flex_r	          arm_flex_l	           arm_add_l	           arm_rot_l	        elbow_flex_l	glut_med1_r/activation	glut_med2_r/activation	glut_med3_r/activation	glut_min1_r/activation	glut_min2_r/activation	glut_min3_r/activation	semimem_r/activation	semiten_r/activation	bifemlh_r/activation	bifemsh_r/activation	    sar_r/activation	add_long_r/activation	add_brev_r/activation	add_mag1_r/activation	add_mag2_r/activation	add_mag3_r/activation	    tfl_r/activation	   pect_r/activation	   grac_r/activation	glut_max1_r/activation	glut_max2_r/activation	glut_max3_r/activation	iliacus_r/activation	  psoas_r/activation	quad_fem_r/activation	    gem_r/activation	   peri_r/activation	rect_fem_r/activation	vas_med_r/activation	vas_int_r/activation	vas_lat_r/activation	med_gas_r/activation	lat_gas_r/activation	 soleus_r/activation	tib_post_r/activation	flex_dig_r/activation	flex_hal_r/activation	tib_ant_r/activation	per_brev_r/activation	per_long_r/activation	per_tert_r/activation	ext_dig_r/activation	ext_hal_r/activation	glut_med1_l/activation	glut_med2_l/activation	glut_med3_l/activation	glut_min1_l/activation	glut_min2_l/activation	glut_min3_l/activation	semimem_l/activation	semiten_l/activation	bifemlh_l/activation	bifemsh_l/activation	    sar_l/activation	add_long_l/activation	add_brev_l/activation	add_mag1_l/activation	add_mag2_l/activation	add_mag3_l/activation	    tfl_l/activation	   pect_l/activation	   grac_l/activation	glut_max1_l/activation	glut_max2_l/activation	glut_max3_l/activation	iliacus_l/activation	  psoas_l/activation	quad_fem_l/activation	    gem_l/activation	   peri_l/activation	rect_fem_l/activation	vas_med_l/activation	vas_int_l/activation	vas_lat_l/activation	med_gas_l/activation	lat_gas_l/activation	 soleus_l/activation	tib_post_l/activation	flex_dig_l/activation	flex_hal_l/activation	tib_ant_l/activation	per_brev_l/activation	per_long_l/activation	per_tert_l/activation	ext_dig_l/activation	ext_hal_l/activation	 ercspn_r/activation	 ercspn_l/activation	 intobl_r/activation	 intobl_l/activation	 extobl_r/activation	 extobl_l/activation	
          0.00000000	         -2.92864391	         -2.11547614	          2.05650312	          0.00000000	          0.98858001	         -0.00227394	         23.36187723	          3.78370287	          1.38661728	         -4.18222393	          5.92120583	         -3.93245053	          0.18364788	        -14.27573033	          0.09567303	          7.31900355	         -7.28671872	          6.19327407	          5.42360344	         16.96024835	         -3.81285668	          1.63948847	         -1.57619692	         -9.18551339	        -13.45418323	         13.87436057	         30.05467886	          1.58557473	        -13.67585345	         19.16636743	         46.83528381	          0.02057571	          0.01411566	          0.01000050	          0.01411597	          0.01411580	          0.01000056	          0.04288972	          0.07108678	          0.21817452	          0.01000018	          0.01000028	          0.11819920	          0.14984002	          0.14903655	          0.14328212	          0.08925053	          0.01000026	          0.01817930	          0.03884514	          0.01188408	          0.02987759	          0.04382864	          0.01000005	          0.01000007	          0.01757922	          0.01000024	          0.01000008	          0.01069744	          0.07041559	          0.07164296	          0.06009569	          0.01000000	          0.01000003	          0.01000000	          0.01188102	          0.01188105	          0.01188104	          0.25363582	          0.17958309	          0.12779681	          0.12290195	          0.28223106	          0.04429857	          0.21592172	          0.11166256	          0.06724975	          0.30108929	          0.25307657	          0.16967942	          0.01000090	          0.01000023	          0.01000018	          0.04827343	          0.09029332	          0.01000005	          0.01000006	          0.01000010	          0.01000037	          0.01000021	          0.37776410	          0.01000031	          0.01000055	          0.01733978	          0.01188461	          0.01000072	          0.26111278	          0.45517628	          0.01074250	          0.01677266	          0.08022767	          0.25737699	          0.01000021	          0.01000021	          0.01000019	          0.34005400	          0.42964166	          0.35426029	          0.30242159	          0.38523925	          0.44987282	          0.01305549	          0.01406168	          0.16788525	          0.01723205	          0.01611628	          0.01471953	          0.01826797	          0.01000000	          0.03344340	          0.01000000	          0.06729854	          0.01000001	
          0.01128610	         -2.92276158	         -2.42620099	          2.17203267	          0.01583672	          0.98818346	         -0.00200788	         22.42882965	          4.35155833	          1.48813496	         -3.20190928	          4.99346188	         -4.10453595	          0.20044071	        -14.29575052	         -0.26311210	          7.05212584	         -8.83634400	          5.34662654	          5.84388191	         18.25291298	         -3.62951444	          2.10497008	         -1.65445167	         -9.61632926	        -13.44987749	         13.57783592	         29.48337830	          1.10023645	        -13.69898608	         19.13941828	         47.86890992	          0.01731814	          0.01188094	          0.01000009	          0.01188114	          0.01188102	          0.01000075	          0.03609940	          0.05983228	          0.18363292	          0.01000002	          0.01000011	          0.09948749	          0.21804766	          0.19727588	          0.18958091	          0.07512047	          0.01000020	          0.03343835	          0.03269538	          0.01000278	          0.02514740	          0.08818720	          0.01000008	          0.01000004	          0.02897077	          0.19863798	          0.06183292	          0.01953308	          0.09847145	          0.09885641	          0.08300364	          0.01000007	          0.01000008	          0.01188070	          0.01000001	          0.01000008	          0.01000008	          0.28423146	          0.17947425	          0.10937065	          0.16937217	          0.32233719	          0.03728519	          0.19754098	          0.09398402	          0.05660270	          0.25342062	          0.21300925	          0.14281561	          0.01000042	          0.01000009	          0.01000005	          0.04063073	          0.07599805	          0.03045320	          0.01000023	          0.01000019	          0.01000048	          0.01000017	          0.31795628	          0.01194561	          0.01000156	          0.01459483	          0.01000330	          0.01000030	          0.21977317	          0.38311231	          0.01000008	          0.01411730	          0.06752594	          0.21662890	          0.01000021	          0.01000020	          0.01000017	          0.30817267	          0.39328554	          0.32965474	          0.28749726	          0.36850835	          0.43784455	          0.01098853	          0.01183562	          0.16195747	          0.01450386	          0.01356473	          0.01238913	          0.01537577	          0.01631599	          0.02814861	          0.01000019	          0.05664376	          0.01000009	
          0.02257219	         -2.91223404	         -2.74535258	          2.27188116	          0.03195177	          0.98778216	         -0.00174792	         21.48993627	          4.87941935	          1.61161506	         -2.74884780	          3.70145061	         -4.24427406	          0.22061113	        -14.23094256	         -0.62916709	          6.75897001	        -10.54148582	          4.33188765	          6.28144774	         19.57967078	         -3.42710524	          2.58477847	         -1.72393112	         -9.99882510	        -13.45759993	         13.44494563	         28.79133652	          0.55562705	        -13.71598839	         19.10185176	         48.85792925	          0.01457632	          0.01000002	          0.03347612	          0.01000012	          0.01000004	          0.01000005	          0.03038413	          0.05035972	          0.15455995	          0.01992555	          0.01000531	          0.08373819	          0.26869764	          0.25596525	          0.15956999	          0.06322735	          0.01000005	          0.02814578	          0.16613771	          0.01000079	          0.02116609	          0.07422532	          0.01000026	          0.01411616	          0.20844497	          0.16718941	          0.05204348	          0.01644059	          0.08288138	          0.08320540	          0.06986245	          0.01411605	          0.01677099	          0.01000004	          0.01992621	          0.01677167	          0.01786401	          0.24266163	          0.19689673	          0.13111296	          0.14255701	          0.27130458	          0.08128304	          0.16626609	          0.07910438	          0.04764130	          0.21329882	          0.17928542	          0.12020490	          0.01187401	          0.01001599	          0.01188099	          0.03419804	          0.06396599	          0.06860062	          0.01188150	          0.01188197	          0.01188341	          0.01188212	          0.26761716	          0.01005469	          0.01000655	          0.01228469	          0.01188150	          0.01188153	          0.18497845	          0.32245756	          0.01188106	          0.01188247	          0.05683517	          0.18739802	          0.04617263	          0.04149192	          0.03585523	          0.25938246	          0.33792207	          0.29010863	          0.26707391	          0.31016596	          0.36852498	          0.01000000	          0.01000006	          0.15381903	          0.01220760	          0.01141715	          0.01042769	          0.01294146	          0.02267430	          0.02369209	          0.01782649	          0.04767586	          0.01207899	
          0.03385829	         -2.89846277	         -3.08651538	          2.35410753	          0.04824219	          0.98740459	         -0.00153266	         20.53375929	          5.32793170	          1.78311471	         -2.52817437	          2.11265136	         -4.37126243	          0.21891778	        -14.06177399	         -1.01261354	          6.43106435	        -12.41589765	          3.12954151	          6.72007012	         20.90430957	         -3.21311278	          3.09707935	         -1.78128638	        -10.31507530	        -13.48822632	         13.50145580	         27.97317570	         -0.03349542	        -13.71684693	         19.05437770	         49.79718308	          0.23666074	          0.21509695	          0.24088500	          0.20634825	          0.09120050	          0.22443812	          0.03467241	          0.04238693	          0.13008986	          0.01677100	          0.01187879	          0.07048068	          0.22615715	          0.21544059	          0.13430676	          0.05321719	          0.01187789	          0.02368987	          0.13983467	          0.01000009	          0.01781509	          0.06247392	          0.01188115	          0.01188132	          0.17544377	          0.14071990	          0.13872246	          0.01383771	          0.06975959	          0.07003231	          0.05880183	          0.01188119	          0.01411580	          0.01188093	          0.01677148	          0.01411640	          0.01503579	          0.39360338	          0.20872226	          0.11035518	          0.47988512	          0.38607510	          0.19516633	          0.23011638	          0.06658049	          0.04009868	          0.31550648	          0.15090081	          0.10117394	          0.01000060	          0.01000007	          0.01000006	          0.02878378	          0.05383888	          0.05774002	          0.01000050	          0.01000087	          0.01000219	          0.01000100	          0.22525013	          0.09330210	          0.01000037	          0.01034009	          0.01000075	          0.01000057	          0.15569250	          0.27140587	          0.01000008	          0.01000130	          0.04783697	          0.15772897	          0.03886256	          0.03492290	          0.03017861	          0.21831674	          0.28442188	          0.24417830	          0.22479058	          0.26106021	          0.31017975	          0.01000000	          0.02286777	          0.16035263	          0.01027490	          0.01000000	          0.01000004	          0.02015805	          0.03447776	          0.01994120	          0.01500418	          0.04012777	          0.01016665	
